<?xml version="1.0" encoding="UTF-8" standalone="no"?>
<svg
   xmlns:dc="http://purl.org/dc/elements/1.1/"
   xmlns:cc="http://creativecommons.org/ns#"
   xmlns:rdf="http://www.w3.org/1999/02/22-rdf-syntax-ns#"
   xmlns:svg="http://www.w3.org/2000/svg"
   xmlns="http://www.w3.org/2000/svg"
   xmlns:xlink="http://www.w3.org/1999/xlink"
   xmlns:sodipodi="http://sodipodi.sourceforge.net/DTD/sodipodi-0.dtd"
   xmlns:inkscape="http://www.inkscape.org/namespaces/inkscape"
   height="580"
   width="660"
   version="1.1"
   id="svg46"
   sodipodi:docname="Flag_of_Rhode_Island.svg"
   inkscape:version="0.92.2 5c3e80d, 2017-08-06">
  <metadata
     id="metadata52">
    <rdf:RDF>
      <cc:Work
         rdf:about="">
        <dc:format>image/svg+xml</dc:format>
        <dc:type
           rdf:resource="http://purl.org/dc/dcmitype/StillImage" />
      </cc:Work>
    </rdf:RDF>
  </metadata>
  <defs
     id="defs50" />
  <sodipodi:namedview
     pagecolor="#ffffff"
     bordercolor="#666666"
     borderopacity="1"
     objecttolerance="10"
     gridtolerance="10"
     guidetolerance="10"
     inkscape:pageopacity="0"
     inkscape:pageshadow="2"
     inkscape:window-width="1280"
     inkscape:window-height="751"
     id="namedview48"
     showgrid="false"
     inkscape:zoom="0.52976889"
     inkscape:cx="301.46971"
     inkscape:cy="287.91831"
     inkscape:window-x="0"
     inkscape:window-y="1"
     inkscape:window-maximized="1"
     inkscape:current-layer="svg46" />
  <g
     id="g914"
     transform="translate(0,-25)">
    <path
       id="path8"
       d="M 0,25 H 660 V 605 H 0 Z"
       inkscape:connector-curvature="0"
       style="fill:#ffffff" />
    <g
       id="Anchor"
       style="fill:#fec500;stroke-width:1.5">
      <path
         id="Body"
         d="m 325.78,210.52 c 0,0 -1.06,118.22 -1.06,126.82 0,8.6 0,20.42 -9.5,18.27 -9.48,-2.15 -21.09,-2.15 -37.97,-13.97 -16.87,-11.82 -16.87,-13.97 -16.87,-13.97 l 15.82,-5.38 c 0,0 -15.82,-3.22 -26.37,-10.74 -10.55,-7.53 -18.99,-13.98 -18.99,-13.98 0,0 -1.05,16.13 4.22,27.95 5.28,11.82 15.82,22.57 15.82,22.57 v -13.97 c 0,0 14.77,13.97 20.05,17.2 5.27,3.22 26.37,11.82 34.8,17.2 8.44,5.36 23.90429,20.41 23.90429,20.41 0,0 16.18571,-17.2 26.73571,-21.5 10.55,-4.3 24.26,-10.74 30.59,-15.04 6.33,-4.3 23.2,-20.42 23.2,-20.42 v 18.27 c 0,0 11.6,-13.97 14.77,-23.65 3.17,-9.67 4.22,-26.87 4.22,-26.87 0,0 -8.44,6.45 -15.82,9.68 -7.39,3.22 -28.48,11.82 -28.48,11.82 l 16.87,4.3 c 0,0 -27.42,21.5 -36.91,25.8 -17.28641,8.31118 -29.54,6.44 -29.54,-4.3 0,-10.74 1.06,-136.5 1.06,-136.5 z m 1.05,-39.77 h 7.38 v 32.24 h -7.38 z"
         inkscape:connector-curvature="0"
         style="stroke:#fec500"
         sodipodi:nodetypes="csccccccccccccssccccccccsccccccc" />
      <path
         id="Stock"
         d="m 274.1,203 c 0,0 29.53,-6.45 56.95,-6.45 27.42,0 55.9,6.44 55.9,6.44 v 11.83 c 0,0 -37.97,5.37 -60.12,5.37 -22.15,0 -52.73822,-6.45 -52.73822,-6.45 z"
         inkscape:connector-curvature="0"
         style="stroke:#ffffff"
         sodipodi:nodetypes="csccscc" />
      <path
         sodipodi:nodetypes="sssccsscssccssscs"
         style="fill-rule:evenodd;stroke:#ffffff"
         inkscape:connector-curvature="0"
         d="m 347.91995,197.08 c 0,-4.9 -1.89,-9.3325 -4.945,-12.54 -1.5275,-1.60375 -3.34625,-2.90125 -5.36563,-3.79781 -1.00968,-0.44828 -0.83079,-0.61936 -1.92946,-0.85534 l 0.0323,6.14246 c 1.32423,0.65313 1.63221,1.30319 2.6341,2.47069 2.00374,2.335 3.24374,5.56 3.24374,9.12 0,7.12 -4.96,11.7321 -11.07,11.7321 -6.11,0 -11.07,-4.6121 -11.07,-11.7321 0,-3.56 1.24,-6.785 3.24375,-9.12 1.00188,-1.1675 1.30987,-1.81756 2.63409,-2.47069 l 0.0323,-6.14246 c -1.09867,0.23598 -0.91978,0.40706 -1.92946,0.85534 -2.01938,0.89656 -3.83813,2.19406 -5.36563,3.79781 -3.055,3.2075 -4.945,7.64 -4.945,12.54 0,9.8 8.0319,17.74 17.39995,17.74 9.36805,0 17.39995,-7.94 17.39995,-17.74 z"
         id="Shackle" />
    </g>
    <g
       id="Banner"
       style="fill:#003271;stroke:#ffffff;stroke-linejoin:round">
      <path
         id="path18"
         d="m 427.63,403.37 c 0,0 -14.01,12.8 -27.72,14.62 -13.71,1.83 -35.3,8.27 -35.3,8.27 0,0 -0.57,19.72 0.1,21.43 0.67,1.71 1.1,2.16 3.07,2.23 6.39,0.23 21.95,0.25 38.88,-3.69 22.13,-5.15 43.84,-18.47 43.84,-18.47 -5.06,-2.08 -17.3,-3.91 -25.2,-5.87 z m -41.03,30.45 c 1.5,4 -22.18,7.7 -21.89,13.87 M 232.37,403.37 c 0,0 14.01,12.8 27.72,14.62 13.71,1.83 35.3,8.27 35.3,8.27 0,0 0.57,19.72 -0.1,21.43 -0.67,1.71 -1.1,2.16 -3.07,2.23 -6.39,0.23 -21.95,0.25 -38.88,-3.69 -22.13,-5.15 -43.84,-18.47 -43.84,-18.47 5.06,-2.08 17.3,-3.91 25.2,-5.87 z m 41.03,30.45 c -1.5,4 22.18,7.7 21.89,13.87"
         inkscape:connector-curvature="0" />
      <path
         id="path20"
         d="m 277.26,432.99 c -2.44,-0.76 -3.86,0.83 -3.86,0.83 v -34.16 c 0,0 1.48,-1.34 4.06,-0.21 9.1,3.97 32.56,12.02 52.54,12.02 19.98,0 43.44,-8.05 52.54,-12.02 2.58,-1.13 4.06,0.2 4.06,0.2 v 34.17 c 0,0 -1.42,-1.6 -3.86,-0.83 -9.7,3.01 -35.06,10.5 -52.74,10.5 -17.68,0 -43.04,-7.49 -52.74,-10.49 z"
         inkscape:connector-curvature="0" />
    </g>
    <g
       id="Stars"
       transform="translate(330,315)"
       style="fill:#fec500">
      <path
         id="a"
         d="m 0,-245 10.58,25.44 27.46,2.2 -20.92,17.92 6.4,26.8 L 0,-187 l -23.51,14.36 6.4,-26.8 -20.93,-17.92 27.46,-2.2 z"
         inkscape:connector-curvature="0" />
      <g
         id="b">
        <use
           id="use25"
           xlink:href="#a"
           transform="rotate(27.7)"
           x="0"
           y="0"
           width="100%"
           height="100%" />
        <use
           id="use27"
           xlink:href="#a"
           transform="rotate(55.38)"
           x="0"
           y="0"
           width="100%"
           height="100%" />
        <use
           id="use29"
           xlink:href="#a"
           transform="rotate(83.08)"
           x="0"
           y="0"
           width="100%"
           height="100%" />
        <use
           id="use31"
           xlink:href="#a"
           transform="rotate(110.77)"
           x="0"
           y="0"
           width="100%"
           height="100%" />
        <use
           id="use33"
           xlink:href="#a"
           transform="rotate(138.46)"
           x="0"
           y="0"
           width="100%"
           height="100%" />
        <use
           id="use35"
           xlink:href="#a"
           transform="rotate(166.15)"
           x="0"
           y="0"
           width="100%"
           height="100%" />
      </g>
      <use
         id="use38"
         xlink:href="#b"
         transform="scale(-1,1)"
         x="0"
         y="0"
         width="100%"
         height="100%" />
    </g>
    <path
       id="HOPE"
       d="m 362.3,423.68 v -11.26 l 8.12,-2.2 8.13,-2.2 v 4.52 l -5.3,1.43 -5.3,1.44 v 4.52 l 4,-1.08 4,-1.09 v 4.52 l -4.06,1.1 -4.06,1.1 v 4.44 l 5.36,-1.45 5.36,-1.46 v 4.53 l -8.13,2.2 -8.13,2.2 v -11.26 z m -15.7,0.5 c 1.92,-0.62 2.85,-1.68 2.51,-2.87 -0.32,-1.13 -2.06,-1.62 -5.14,-1.44 l -1.32,0.08 v 4.85 l 1.68,-0.22 c 0.92,-0.12 1.94,-0.3 2.26,-0.4 z m -9.37,3.08 v -11.28 l 3.68,-0.32 c 4.54,-0.39 6.06,-0.38 8.08,0.03 3.5,0.72 5.44,2.6 5.64,5.48 a 5.39,5.39 0 0 1 -2.03,4.73 c -1.72,1.5 -4.13,2.42 -7.98,3.04 l -1.85,0.3 v 8.73 l -2.77,0.28 -2.77,0.28 z m -18.28,6.89 c 0.7,-0.38 1.41,-1.5 1.73,-2.73 0.63,-2.46 0.47,-6.6 -0.35,-8.61 -0.79,-1.96 -2.5,-2.63 -4.02,-1.57 -1.3,0.9 -1.84,2.93 -1.72,6.5 0.12,3.87 0.82,5.9 2.26,6.54 a 2.4,2.4 0 0 0 2.1,-0.13 z m -2.75,4.62 a 8.4,8.4 0 0 1 -6.01,-4.52 c -1.01,-2.02 -1.34,-3.75 -1.34,-6.96 0,-3.23 0.34,-5.01 1.32,-6.95 1.48,-2.92 4.62,-4.4 8.66,-4.04 4.35,0.38 6.88,2.86 7.68,7.55 0.24,1.4 0.27,4.6 0.06,6.24 -0.56,4.42 -2.38,7.19 -5.42,8.27 -1.46,0.51 -3.36,0.67 -4.95,0.4 z m -34.5,-19.5 v -11.26 l 2.77,0.68 2.77,0.68 v 9.05 l 3.36,0.83 3.35,0.82 v -9.04 l 2.83,0.7 2.83,0.69 v 22.52 l -2.83,-0.7 -2.83,-0.69 v -9.04 l -3.35,-0.83 -3.36,-0.83 v 9.05 l -2.77,-0.68 -2.77,-0.68 v -11.26 z"
       inkscape:connector-curvature="0"
       style="fill:#fec500" />
  </g>
  <path
     d="m 238.6,3079.78 h 34.82 m -34.83,11.55 h 34.83 m -34.83,11.55 h 34.83 m -34.83,11.54 h 34.83 m -34.83,11.55 h 34.83 m -34.83,11.54 h 34.83 m -34.83,11.55 h 34.83 m -34.83,11.54 h 34.83 M 238.6,4519.78 h 34.82 m -34.83,11.55 h 34.83 m -34.83,11.54 h 34.83 m -34.83,11.55 h 34.83 m -34.83,11.55 h 34.83 m -34.83,11.54 h 34.83 m -34.83,11.55 h 34.83 m -34.83,11.54 h 34.83 M 238.6,5959.78 h 34.82 m -34.83,11.55 h 34.83 m -34.83,11.54 h 34.83 m -34.83,11.55 h 34.83 m -34.83,11.55 h 34.83 m -34.83,11.54 h 34.83 m -34.83,11.55 h 34.83 m -34.83,11.54 h 34.83 M 238.6,7399.78 h 34.82 m -34.83,11.55 h 34.83 m -34.83,11.54 h 34.83 m -34.83,11.55 h 34.83 m -34.83,11.55 h 34.83 m -34.83,11.54 h 34.83 m -34.83,11.55 h 34.83 m -34.83,11.54 h 34.83 M 238.6,8839.78 h 34.82 m -34.83,11.55 h 34.83 m -34.83,11.55 h 34.83 m -34.83,11.54 h 34.83 m -34.83,11.55 h 34.83 m -34.83,11.54 h 34.83 m -34.83,11.55 h 34.83 m -34.83,11.54 h 34.83"
     id="path44"
     inkscape:connector-curvature="0"
     style="fill:none;stroke:#dfad00;stroke-width:3.91000009" />
</svg>
